<?xml version="1.0" encoding="UTF-8"?> <svg xmlns="http://www.w3.org/2000/svg" xmlns:xlink="http://www.w3.org/1999/xlink" id="ertg818vjtc1" viewBox="0 0 494 1198" shape-rendering="geometricPrecision" text-rendering="geometricPrecision" width="494" height="1198"> <style><![CDATA[#ertg818vjtc2_to {animation: ertg818vjtc2_to__to 6000ms linear infinite normal forwards}@keyframes ertg818vjtc2_to__to { 0% {transform: translate(71.645200px,88.447300px);animation-timing-function: cubic-bezier(0.420000,0,0.580000,1)} 50% {transform: translate(71.645200px,268.447300px);animation-timing-function: cubic-bezier(0.420000,0,0.580000,1)} 100% {transform: translate(71.645200px,88.447300px)} }#ertg818vjtc3_tr {animation: ertg818vjtc3_tr__tr 6000ms linear infinite normal forwards}@keyframes ertg818vjtc3_tr__tr { 0% {transform: translate(240.990002px,974.529968px) rotate(0deg)} 100% {transform: translate(240.990002px,974.529968px) rotate(720deg)} }#ertg818vjtc6_ts {animation: ertg818vjtc6_ts__ts 6000ms linear infinite normal forwards}@keyframes ertg818vjtc6_ts__ts { 0% {transform: translate(73.661900px,0px) scale(1,1);animation-timing-function: cubic-bezier(0.420000,0,0.580000,1)} 50% {transform: translate(73.661900px,0px) scale(1,0.600000);animation-timing-function: cubic-bezier(0.420000,0,0.580000,1)} 100% {transform: translate(73.661900px,0px) scale(1,1)} }#ertg818vjtc7 {animation: ertg818vjtc7_f_o 6000ms linear infinite normal forwards}@keyframes ertg818vjtc7_f_o { 0% {fill-opacity: 1;animation-timing-function: cubic-bezier(0.420000,0,0.580000,1)} 33.333333% {fill-opacity: 0;animation-timing-function: cubic-bezier(0.420000,0,0.580000,1)} 66.666667% {fill-opacity: 0;animation-timing-function: cubic-bezier(0.420000,0,0.580000,1)} 100% {fill-opacity: 1} }#ertg818vjtc8_tr {animation: ertg818vjtc8_tr__tr 6000ms linear infinite normal forwards}@keyframes ertg818vjtc8_tr__tr { 0% {transform: translate(246.050003px,823.250031px) rotate(0deg)} 100% {transform: translate(246.050003px,823.250031px) rotate(360deg)} }]]></style> <g id="ertg818vjtc2_to" transform="translate(71.645200,88.447300)"> <path id="ertg818vjtc2" d="M77.334700,102.912700C80.471675,102.912700,83.014800,100.369775,83.014800,97.232800C83.014800,94.095825,80.471675,91.552700,77.334700,91.552700C74.197725,91.552700,71.654800,94.095825,71.654800,97.232800C71.654800,100.369775,74.197725,102.912700,77.334700,102.912700Z" transform="translate(0,0)" fill="rgb(255,255,255)" stroke="rgb(255,255,255)" stroke-width="0.009649" stroke-linecap="round" stroke-linejoin="round" stroke-miterlimit="1.500000"></path> </g> <g id="ertg818vjtc3_tr" transform="translate(240.990002,974.529968) rotate(0)"> <g id="ertg818vjtc3" transform="translate(-240.990002,-974.529968)"> <path id="ertg818vjtc4" d="M123.866000,604.475000C127.002209,604.475000,129.546000,601.931209,129.546000,598.795000C129.546000,595.658791,127.002209,593.115000,123.866000,593.115000C120.729791,593.115000,118.186000,595.658791,118.186000,598.795000C118.186000,601.931209,120.729791,604.475000,123.866000,604.475000Z" transform="matrix(1 0 0 1 118.19399999999999 593.12500000000000)" fill="rgb(255,255,255)" stroke="rgb(255,255,255)" stroke-width="0.009649" stroke-linecap="round" stroke-linejoin="round" stroke-miterlimit="1.500000"></path> <path id="ertg818vjtc5" d="M230.624000,816.232000C352.266067,816.232000,450.874500,717.623791,450.874500,595.982000C450.874500,474.342209,352.266067,375.732000,230.624000,375.732000C108.983933,375.732000,10.374500,474.342209,10.374500,595.982000C10.374500,717.623791,108.983933,816.232000,230.624000,816.232000Z" transform="matrix(1 0 0 1 10.36550000000000 375.72800000000001)" fill="none" stroke="rgb(255,255,255)" stroke-width="4" stroke-linecap="round" stroke-linejoin="round" stroke-miterlimit="1.500000"></path> </g> </g> <g id="ertg818vjtc6_ts" transform="translate(73.661900,0) scale(1,1)"> <path id="ertg818vjtc6" d="M76.898100,0L73.658100,0L73.658100,931.460000L76.898100,931.460000L76.898100,0Z" transform="translate(0,0)" fill="rgb(255,255,255)" stroke="none" stroke-width="1"></path> </g> <path id="ertg818vjtc7" d="M94.198300,168.018000L87.718300,168.018000L87.718300,693.088000L94.198300,693.088000L94.198300,168.018000Z" transform="matrix(1 0 0 1 87.70169999999999 168.02200000000005)" fill="rgb(255,255,255)" stroke="none" stroke-width="1"></path> <g id="ertg818vjtc8_tr" transform="translate(246.050003,823.250031) rotate(0)"> <g id="ertg818vjtc8" transform="translate(-246.050003,-823.250031)"> <path id="ertg818vjtc9" d="M245.050000,777.700000C379.835791,777.700000,489.100000,668.433791,489.100000,533.650000C489.100000,398.864209,379.835791,289.600000,245.050000,289.600000C110.265009,289.600000,1,398.864209,1,533.650000C1,668.433791,110.265009,777.700000,245.050000,777.700000Z" transform="matrix(1 0 0 1 1 289.60000000000002)" fill="none" stroke="rgb(255,255,255)" stroke-width="4" stroke-linecap="round" stroke-linejoin="round" stroke-miterlimit="1.500000"></path> <path id="ertg818vjtc10" d="M212.401000,572.800000C246.311552,572.800000,273.800000,545.310000,273.800000,511.400000C273.800000,477.490000,246.311552,450,212.401000,450C178.490448,450,151,477.490000,151,511.400000C151,545.310000,178.490448,572.800000,212.401000,572.800000Z" transform="matrix(1 0 0 1 151 450)" fill="rgb(255,255,255)" stroke="none" stroke-width="1"></path> </g> </g> </svg> 