<svg width="20" height="20" viewBox="0 0 20 20" fill="none" xmlns="http://www.w3.org/2000/svg">
<path d="M10 0C4.47715 0 0 4.47716 0 10C0 15.5229 4.47715 20 10 20C15.5228 20 20 15.5229 20 10C20 4.47716 15.5228 0 10 0ZM14.7344 5.95887L13.046 14.7398C13.0212 14.8631 12.9648 14.9779 12.8822 15.0728C12.7996 15.1677 12.6937 15.2395 12.5749 15.281C12.4561 15.3225 12.3286 15.3323 12.2049 15.3095C12.0811 15.2868 11.9655 15.2321 11.8693 15.151L9.39877 13.1614L9.32628 13.103L9.24348 13.0363L7.79125 14.5115C7.78255 14.5249 7.77124 14.5364 7.75799 14.5453L7.75722 14.5461L7.75723 14.5458C7.74243 14.5562 7.72552 14.5632 7.70771 14.5663C7.6899 14.5694 7.67162 14.5686 7.65417 14.5639C7.63672 14.5591 7.62053 14.5506 7.60674 14.5389C7.59295 14.5272 7.58191 14.5126 7.57439 14.4962L6.15531 11.1898L3.54884 10.4581C3.45704 10.4324 3.37573 10.3783 3.3165 10.3036C3.25727 10.2289 3.22315 10.1373 3.219 10.0421C3.21485 9.94683 3.24089 9.85271 3.29341 9.77313C3.34592 9.69355 3.42222 9.63259 3.51143 9.59895L14.2517 5.54893C14.3122 5.52613 14.3776 5.51992 14.4413 5.53097C14.505 5.54201 14.5645 5.56989 14.6138 5.61172C14.6631 5.65356 14.7002 5.70781 14.7214 5.76885C14.7427 5.8299 14.7471 5.89551 14.7344 5.95887V5.95887Z" fill="white"/>
</svg>
